<svg xmlns="http://www.w3.org/2000/svg" xmlns:xlink="http://www.w3.org/1999/xlink" width="20" height="20" viewBox="0 0 20 20" fill="none"><g opacity="1"  transform="translate(0 0)  rotate(0)"><mask id="bg-mask-0" fill="white"><use xlink:href="#path_0"></use></mask><g mask="url(#bg-mask-0)" ><path id="路径 1" fill-rule="evenodd" style="fill:#000000" opacity="1" d="M17.905,11.4574c0.51,0.52 0.51,1.37 -0.01,1.9l-0.01,0.01l-0.01,0.01l-6.5,5.27h-2.75v-2.8l0.07,-0.06l6.47,-5.29c0.25,-0.25 0.58,-0.39 0.94,-0.39c0.36,0 0.7,0.14 0.95,0.39l0.01,0.01zM16.645,12.3974l-0.57,-0.67l-5.89,4.72v0.64h0.64z"></path><path id="路径 2" fill-rule="evenodd" style="fill:#000000" opacity="1" d="M3.49625 15.1334L3.46625 15.1534L3.46625 2.83344L15.9762 2.83344L15.9762 8.27344L17.5362 9.55344L17.5362 2.05344C17.5362 1.62344 17.1862 1.27344 16.7562 1.27344L2.68625 1.27344C2.25625 1.27344 1.90625 1.62344 1.90625 2.05344L1.90625 18.6134L1.91625 18.6134L4.53625 16.3034L7.15625 18.6234L7.15625 16.5434L5.56625 15.1334L4.53625 14.2134L3.49625 15.1334Z"></path><path id="路径 3" fill-rule="evenodd" style="fill:#000000" opacity="1" d="M5.77219,6.69063c-0.43,0 -0.78,-0.35001 -0.78,-0.77001c0,-0.43 0.35,-0.78 0.78,-0.78h5.18001c0.43,0 0.78,0.35 0.78,0.78c0,0.42 -0.35,0.77001 -0.78,0.77001zM4.99219,9.92063c0,-0.43 0.35,-0.78001 0.78,-0.78001h6.53001c0.42,0 0.77,0.35001 0.77,0.78001c0,0.42997 -0.34,0.76997 -0.77,0.76997h-6.53001c-0.43,0 -0.78,-0.34 -0.78,-0.76997z"></path></g></g><defs><rect id="path_0" x="0" y="0" width="20" height="20" /></defs></svg>